<svg height="496pt" viewBox="0 -16 496 496" width="496pt" xmlns="http://www.w3.org/2000/svg" xmlns:xlink="http://www.w3.org/1999/xlink"><linearGradient id="a" gradientUnits="userSpaceOnUse" x1="248" x2="248" y1="464" y2="0"><stop offset="0" stop-color="#9f2fff"/><stop offset="1" stop-color="#0bb1d3"/></linearGradient><path d="m256 296h-16v-16h16zm216.152344-123.550781-28.519532 68.445312c19.960938 14.539063 33.613282 37.183594 35.96875 63.113281h16.398438v56c0 57.34375-46.65625 104-104 104h-297.03125c-12.59375 0-23.121094-9.839843-23.945312-22.40625l-15.007813-225.074218-.007813-24.535156-28.152343 28.152343-5.597657-6.71875c-14.363281-17.210937-22.257812-39.019531-22.257812-61.425781 0-52.9375 43.0625-96 96-96 22.398438 0 44.207031 7.894531 61.425781 22.238281l6.726563 5.609375-44.152344 44.152344h48.320312l25.09375-128h70.585938v16h-57.414062l-21.960938 112h79.375v64.398438c1.28125-.253907 2.601562-.398438 3.953125-.398438h4.664063c1.488281 0 2.863281-.855469 3.527343-2.183594l1.390625-2.785156c3.402344-6.808594 10.242188-11.03125 17.839844-11.03125 8.59375 0 16.199219 5.480469 18.929688 13.632812l2.550781 7.671876c1.007812 3 5.855469 3.359374 7.28125.511718l1.390625-2.785156c3.402344-6.808594 10.242187-11.03125 17.839844-11.03125h1.234374c7.597657 0 14.445313 4.222656 17.839844 11.023438l1.390625 2.800781c.679688 1.320312 2.0625 2.175781 3.550781 2.175781h3.664063c5.328125 0 10.34375 2.070312 14.113281 5.839844l6.910156 6.914062 27.707032-60.027344c-2.480469-5.285156-3.777344-11-3.777344-16.726562 0-22.054688 17.945312-40 40-40s40 17.945312 40 40c0 15.878906-9.449219 30.089844-23.847656 36.449219zm-208.152344 39.503906v5.65625c0 6.679687-3.320312 12.886719-8.878906 16.597656l-13.359375 8.90625c-1.105469.726563-1.761719 1.957031-1.761719 3.277344v10.25c2.625-.375 5.28125-.640625 8-.640625 28.152344 0 51.457031 20.902344 55.359375 48h1.039063c3.746093-41.273438 36.074218-74.351562 76.984374-79.296875l-7.542968-7.542969c-.742188-.753906-1.734375-1.160156-2.792969-1.160156h-3.664063c-7.597656 0-14.445312-4.222656-17.839843-11.023438l-1.390625-2.800781c-.664063-1.320312-2.046875-2.175781-3.535156-2.175781h-1.234376c-1.488281 0-2.863281.855469-3.527343 2.183594l-1.390625 2.785156c-3.402344 6.808594-10.25 11.03125-17.847656 11.03125-8.59375 0-16.203126-5.480469-18.929688-13.632812l-2.550781-7.671876c-1.015625-3.007812-5.847657-3.359374-7.28125-.511718l-1.390625 2.785156c-3.402344 6.808594-10.25 11.03125-17.847656 11.03125h-4.664063c-2.175781 0-3.953125 1.777344-3.953125 3.953125zm-55.191406 92.046875h78.382812c-3.71875-18.230469-19.871094-32-39.191406-32s-35.472656 13.769531-39.191406 32zm-27.320313-160-3.136719 16h29.648438v16h-32.785156l-7.871094 40.152344c3.144531 1.070312 6.296875 2.175781 9.496094 3.304687 16.9375 6 34.457031 12.144531 53.558594 12.480469.792968-.746094 1.5625-1.523438 2.480468-2.144531l13.359375-8.90625c1.105469-.726563 1.761719-1.957031 1.761719-3.277344v-41.609375h-24v-16h24v-16zm-77.488281 0-16 16h74.039062l3.136719-16zm-51.207031 28.585938 63.792969-63.800782c-6.417969-3.082031-13.371094-4.785156-20.585938-4.785156-26.472656 0-48 21.527344-48 48 0 7.214844 1.703125 14.175781 4.792969 20.585938zm-23.519531 23.519531 11.757812-11.761719c-5.824219-9.824219-9.03125-20.832031-9.03125-32.34375 0-35.289062 28.710938-64 64-64 11.511719 0 22.511719 3.207031 32.34375 9.03125l11.761719-11.757812c-13.027344-8.609376-28.394531-13.273438-44.105469-13.273438-44.113281 0-80 35.886719-80 80 0 15.71875 4.664062 31.089844 13.273438 44.105469zm42.726562-20.105469v40l.246094 3.734375c12.738281-4.964844 34.050781-11.734375 55.753906-11.734375 8.105469 0 16.023438 1.351562 23.960938 3.425781l6.941406-35.425781zm152.625 272c-29.191406-18.441406-48.625-50.992188-48.625-88v-56h16.640625c2.710937-18.824219 14.785156-34.609375 31.359375-42.519531v-13.792969c-19.304688-1.40625-36.824219-7.597656-52.496094-13.152344-2.449218-.863281-4.863281-1.710937-7.265625-2.542968l-36.382812 185.542968-15.703125-3.078125 36.71875-187.296875c-7.144532-1.902344-14.09375-3.160156-20.871094-3.160156-22.046875 0-44.382812 8.222656-54.625 12.550781l13.617188 203.976563c.273437 4.191406 3.785156 7.472656 7.976562 7.472656zm255.375-88v-8h-24v-16h24v-16h-288v16h248v16h-248v8c0 48.519531 39.480469 88 88 88h112c48.519531 0 88-39.480469 88-88zm-48.808594-56c-3.71875-18.230469-19.871094-32-39.191406-32s-35.472656 13.769531-39.191406 32zm-39.191406-64c-37 0-67.535156 28.054688-71.527344 64h16.167969c3.902344-27.097656 27.207031-48 55.359375-48s51.457031 20.902344 55.359375 48h16.167969c-3.992188-35.945312-34.527344-64-71.527344-64zm71.535156-81.359375c9.847656-3.289063 16.464844-12.382813 16.464844-22.640625 0-13.230469-10.769531-24-24-24s-24 10.769531-24 24c0 4.304688 1.191406 8.457031 3.542969 12.34375l2.199219 3.632812-33.621094 72.839844.144531.144532c9 1.261718 17.550781 3.886718 25.46875 7.664062l30.34375-72.832031zm-15.535156-14.640625h16v-16h-16zm0 0" fill="url(#a)"/></svg>